<mxfile host="Electron" agent="Mozilla/5.0 (Windows NT 10.0; Win64; x64) AppleWebKit/537.36 (KHTML, like Gecko) draw.io/24.7.5 Chrome/126.0.6478.183 Electron/31.3.0 Safari/537.36" version="24.7.5">
  <diagram name="第 1 页" id="auU6Wy1UVJdjl7qzY_JJ">
    <mxGraphModel dx="1430" dy="825" grid="1" gridSize="10" guides="1" tooltips="1" connect="1" arrows="1" fold="1" page="1" pageScale="1" pageWidth="827" pageHeight="1169" math="0" shadow="0">
      <root>
        <mxCell id="0" />
        <mxCell id="1" parent="0" />
        <mxCell id="ZLwQBMDApicGqsHY_AEQ-1" value="" style="ellipse;whiteSpace=wrap;html=1;aspect=fixed;sketch=1;curveFitting=1;jiggle=2;shadow=0;fillColor=none;" vertex="1" parent="1">
          <mxGeometry x="360" y="120" width="40" height="40" as="geometry" />
        </mxCell>
        <mxCell id="ZLwQBMDApicGqsHY_AEQ-2" value="" style="ellipse;whiteSpace=wrap;html=1;aspect=fixed;sketch=1;curveFitting=1;jiggle=2;shadow=0;fillColor=none;" vertex="1" parent="1">
          <mxGeometry x="240" y="240" width="40" height="40" as="geometry" />
        </mxCell>
        <mxCell id="ZLwQBMDApicGqsHY_AEQ-3" value="" style="ellipse;whiteSpace=wrap;html=1;aspect=fixed;sketch=1;curveFitting=1;jiggle=2;shadow=0;fillColor=none;" vertex="1" parent="1">
          <mxGeometry x="480" y="240" width="40" height="40" as="geometry" />
        </mxCell>
        <mxCell id="ZLwQBMDApicGqsHY_AEQ-4" value="" style="ellipse;whiteSpace=wrap;html=1;aspect=fixed;sketch=1;curveFitting=1;jiggle=2;shadow=0;fillColor=none;" vertex="1" parent="1">
          <mxGeometry x="160" y="320" width="40" height="40" as="geometry" />
        </mxCell>
        <mxCell id="ZLwQBMDApicGqsHY_AEQ-5" value="" style="ellipse;whiteSpace=wrap;html=1;aspect=fixed;sketch=1;curveFitting=1;jiggle=2;shadow=0;fillColor=none;" vertex="1" parent="1">
          <mxGeometry x="320" y="320" width="40" height="40" as="geometry" />
        </mxCell>
        <mxCell id="ZLwQBMDApicGqsHY_AEQ-6" value="" style="endArrow=none;html=1;rounded=0;entryX=0;entryY=0.75;entryDx=0;entryDy=0;entryPerimeter=0;sketch=1;curveFitting=1;jiggle=2;" edge="1" parent="1" source="ZLwQBMDApicGqsHY_AEQ-2" target="ZLwQBMDApicGqsHY_AEQ-1">
          <mxGeometry width="50" height="50" relative="1" as="geometry">
            <mxPoint x="280" y="480" as="sourcePoint" />
            <mxPoint x="330" y="430" as="targetPoint" />
          </mxGeometry>
        </mxCell>
        <mxCell id="ZLwQBMDApicGqsHY_AEQ-7" value="" style="endArrow=none;html=1;rounded=0;entryX=0;entryY=1;entryDx=0;entryDy=0;exitX=1;exitY=0;exitDx=0;exitDy=0;sketch=1;curveFitting=1;jiggle=2;" edge="1" parent="1" source="ZLwQBMDApicGqsHY_AEQ-4" target="ZLwQBMDApicGqsHY_AEQ-2">
          <mxGeometry width="50" height="50" relative="1" as="geometry">
            <mxPoint x="280" y="480" as="sourcePoint" />
            <mxPoint x="330" y="430" as="targetPoint" />
          </mxGeometry>
        </mxCell>
        <mxCell id="ZLwQBMDApicGqsHY_AEQ-8" value="" style="endArrow=none;html=1;rounded=0;entryX=1.043;entryY=0.737;entryDx=0;entryDy=0;sketch=1;curveFitting=1;jiggle=2;entryPerimeter=0;" edge="1" parent="1" source="ZLwQBMDApicGqsHY_AEQ-3" target="ZLwQBMDApicGqsHY_AEQ-1">
          <mxGeometry width="50" height="50" relative="1" as="geometry">
            <mxPoint x="204" y="336" as="sourcePoint" />
            <mxPoint x="256" y="284" as="targetPoint" />
          </mxGeometry>
        </mxCell>
        <mxCell id="ZLwQBMDApicGqsHY_AEQ-9" value="" style="endArrow=none;html=1;rounded=0;entryX=1;entryY=1;entryDx=0;entryDy=0;sketch=1;curveFitting=1;jiggle=2;" edge="1" parent="1" source="ZLwQBMDApicGqsHY_AEQ-5" target="ZLwQBMDApicGqsHY_AEQ-2">
          <mxGeometry width="50" height="50" relative="1" as="geometry">
            <mxPoint x="214" y="346" as="sourcePoint" />
            <mxPoint x="266" y="294" as="targetPoint" />
          </mxGeometry>
        </mxCell>
        <mxCell id="ZLwQBMDApicGqsHY_AEQ-10" value="" style="ellipse;whiteSpace=wrap;html=1;aspect=fixed;sketch=1;curveFitting=1;jiggle=2;shadow=0;fillColor=none;" vertex="1" parent="1">
          <mxGeometry x="396" y="320" width="40" height="40" as="geometry" />
        </mxCell>
        <mxCell id="ZLwQBMDApicGqsHY_AEQ-11" value="" style="endArrow=none;html=1;rounded=0;entryX=-0.009;entryY=0.703;entryDx=0;entryDy=0;sketch=1;curveFitting=1;jiggle=2;entryPerimeter=0;" edge="1" parent="1" source="ZLwQBMDApicGqsHY_AEQ-10" target="ZLwQBMDApicGqsHY_AEQ-3">
          <mxGeometry width="50" height="50" relative="1" as="geometry">
            <mxPoint x="290" y="346" as="sourcePoint" />
            <mxPoint x="350" y="274" as="targetPoint" />
          </mxGeometry>
        </mxCell>
        <mxCell id="ZLwQBMDApicGqsHY_AEQ-12" value="" style="ellipse;whiteSpace=wrap;html=1;aspect=fixed;sketch=1;curveFitting=1;jiggle=2;shadow=0;fillColor=none;" vertex="1" parent="1">
          <mxGeometry x="556" y="320" width="40" height="40" as="geometry" />
        </mxCell>
        <mxCell id="ZLwQBMDApicGqsHY_AEQ-13" value="" style="endArrow=none;html=1;rounded=0;entryX=0.905;entryY=0.72;entryDx=0;entryDy=0;sketch=1;curveFitting=1;jiggle=2;entryPerimeter=0;" edge="1" parent="1" source="ZLwQBMDApicGqsHY_AEQ-12" target="ZLwQBMDApicGqsHY_AEQ-3">
          <mxGeometry width="50" height="50" relative="1" as="geometry">
            <mxPoint x="450" y="346" as="sourcePoint" />
            <mxPoint x="510" y="274" as="targetPoint" />
          </mxGeometry>
        </mxCell>
      </root>
    </mxGraphModel>
  </diagram>
</mxfile>
